<svg width="24" height="25" viewBox="0 0 24 25" fill="none" xmlns="http://www.w3.org/2000/svg">
<path d="M19.4245 5.08156C18.4513 4.09867 17.2934 3.31776 16.0174 2.78371C14.7414 2.24966 13.3725 1.97298 11.9893 1.96958C10.6061 1.96617 9.23579 2.23611 7.9572 2.76387C6.67862 3.29164 5.51691 4.06683 4.53882 5.04492C3.56073 6.02301 2.78553 7.18472 2.25777 8.46331C1.73 9.7419 1.46007 11.1122 1.46347 12.4954C1.46688 13.8786 1.74355 15.2475 2.27761 16.5235C2.81166 17.7995 3.59256 18.9574 4.57546 19.9306C5.54872 20.9135 6.7066 21.6944 7.98257 22.2285C9.25855 22.7625 10.6275 23.0392 12.0107 23.0426C13.3939 23.046 14.7642 22.7761 16.0428 22.2483C17.3214 21.7205 18.4831 20.9454 19.4612 19.9673C20.4392 18.9892 21.2144 17.8275 21.7422 16.5489C22.27 15.2703 22.5399 13.9 22.5365 12.5168C22.5331 11.1336 22.2564 9.76465 21.7224 8.48868C21.1883 7.2127 20.4074 6.05482 19.4245 5.08156ZM2.99999 12.5061C2.99965 11.7095 3.10526 10.9165 3.31405 10.1478C3.65811 10.8884 4.1578 11.5283 4.49764 12.2881C4.93686 13.265 6.11624 12.9941 6.63702 13.85C7.09921 14.6098 6.60561 15.5708 6.95155 16.3658C7.2028 16.9428 7.7953 17.0689 8.20405 17.4908C8.62171 17.9164 8.6128 18.4995 8.67655 19.0545C8.74849 19.7066 8.86517 20.353 9.02577 20.9891C9.02577 20.9937 9.02577 20.9989 9.02952 21.0036C5.52186 19.7717 2.99999 16.4281 2.99999 12.5061ZM12 21.5061C11.4974 21.5059 10.9956 21.4639 10.5 21.3805C10.5051 21.2534 10.5075 21.1348 10.5201 21.0523C10.634 20.307 11.0072 19.5781 11.5106 19.0203C12.008 18.47 12.6895 18.0978 13.1095 17.4734C13.5211 16.8641 13.6444 16.0437 13.4747 15.3317C13.2248 14.2798 11.7956 13.9287 11.025 13.3583C10.582 13.0302 10.1878 12.523 9.60608 12.4817C9.33796 12.463 9.11342 12.5206 8.84764 12.4522C8.60389 12.3889 8.41264 12.2577 8.15296 12.2919C7.6678 12.3556 7.36171 12.8741 6.84046 12.8037C6.34592 12.7377 5.83639 12.1587 5.72389 11.6877C5.57952 11.082 6.05858 10.8856 6.57186 10.8317C6.78608 10.8092 7.02655 10.7848 7.23233 10.8636C7.50327 10.9639 7.63124 11.2292 7.87452 11.3633C8.33061 11.6136 8.42296 11.2137 8.35311 10.8087C8.24858 10.2022 8.12671 9.95515 8.66764 9.5375C9.04264 9.24968 9.36327 9.04156 9.30327 8.52453C9.26764 8.22078 9.10124 8.08344 9.25639 7.78109C9.37405 7.55093 9.69702 7.34328 9.90749 7.20593C10.4508 6.85156 12.2348 6.87781 11.5059 5.88593C11.2917 5.59484 10.8966 5.07453 10.5216 5.00328C10.0528 4.91468 9.84468 5.43781 9.51796 5.66843C9.18046 5.90703 8.52327 6.17797 8.1853 5.80906C7.73061 5.31265 8.48671 5.15 8.65405 4.80312C8.73139 4.6414 8.65405 4.41687 8.52374 4.20547C8.6928 4.13422 8.86467 4.06812 9.03936 4.00718C9.14884 4.08804 9.27871 4.13675 9.41436 4.14781C9.72796 4.16843 10.0237 3.99875 10.2975 4.2125C10.6012 4.44687 10.8201 4.74312 11.2233 4.81625C11.6133 4.88703 12.0262 4.65968 12.1228 4.26031C12.1814 4.0175 12.1228 3.76109 12.0666 3.51031C13.8197 3.5204 15.5312 4.04543 16.9884 5.02015C16.8947 4.98453 16.7826 4.98875 16.6444 5.05297C16.3598 5.18515 15.9567 5.52172 15.9234 5.85547C15.8855 6.23422 16.4442 6.28765 16.7095 6.28765C17.108 6.28765 17.5116 6.10953 17.3831 5.64922C17.3273 5.44953 17.2514 5.24187 17.1291 5.11625C17.4231 5.32032 17.7049 5.54165 17.9728 5.77906C17.9686 5.78328 17.9644 5.78703 17.9601 5.79172C17.6901 6.07297 17.3766 6.29562 17.1919 6.63781C17.0616 6.87875 16.9148 6.99312 16.6509 7.05547C16.5056 7.08968 16.3397 7.10234 16.2178 7.19984C15.8784 7.46703 16.0716 8.10922 16.3931 8.30187C16.7995 8.54515 17.4023 8.43078 17.7089 8.08343C17.9484 7.81156 18.0895 7.33953 18.5203 7.34C18.71 7.3396 18.8921 7.41386 19.0275 7.54672C19.2056 7.7314 19.1705 7.9039 19.2084 8.13453C19.2755 8.54422 19.6369 8.32203 19.8567 8.11531C20.017 8.40051 20.1615 8.69422 20.2898 8.99515C20.048 9.34343 19.8558 9.72312 19.274 9.31718C18.9258 9.0739 18.7116 8.72093 18.2742 8.61125C17.8922 8.5175 17.5008 8.615 17.1234 8.68015C16.6945 8.75468 16.1859 8.7875 15.8606 9.11234C15.5461 9.42547 15.3797 9.84453 15.045 10.1591C14.3976 10.7684 14.1244 11.4336 14.5434 12.2952C14.9466 13.1234 15.7898 13.573 16.6997 13.5139C17.5936 13.4544 18.5222 12.9359 18.4964 14.2348C18.487 14.6947 18.5831 15.013 18.7242 15.44C18.855 15.8337 18.8461 16.2153 18.8761 16.6217C18.9046 17.0976 18.979 17.5697 19.0983 18.0312C18.2581 19.113 17.1818 19.9885 15.9515 20.5907C14.7213 21.1929 13.3697 21.506 12 21.5061Z" fill="white"/>
</svg>
