<svg width="24" height="25" viewBox="0 0 24 25" fill="none" xmlns="http://www.w3.org/2000/svg">
<path d="M15.5925 3.52719C14.6803 2.54234 13.4062 2 12 2C10.5862 2 9.30795 2.53906 8.39998 3.51781C7.48217 4.50734 7.03498 5.85219 7.13998 7.30438C7.34811 10.1694 9.52827 12.5 12 12.5C14.4717 12.5 16.6481 10.1698 16.8595 7.30531C16.9659 5.86625 16.5159 4.52422 15.5925 3.52719Z" fill="white"/>
<path d="M20.25 23H3.75002C3.53405 23.0028 3.32017 22.9574 3.12394 22.8672C2.92772 22.7769 2.75407 22.6441 2.61565 22.4783C2.31096 22.1141 2.18815 21.6167 2.27909 21.1138C2.67471 18.9191 3.9094 17.0755 5.85002 15.7812C7.57409 14.6323 9.75799 14 12 14C14.2421 14 16.426 14.6328 18.15 15.7812C20.0906 17.075 21.3253 18.9186 21.721 21.1133C21.8119 21.6163 21.6891 22.1136 21.3844 22.4778C21.246 22.6437 21.0724 22.7766 20.8762 22.867C20.6799 22.9573 20.466 23.0028 20.25 23Z" fill="white"/>
</svg>
